<svg xmlns="http://www.w3.org/2000/svg" xmlns:xlink="http://www.w3.org/1999/xlink" preserveAspectRatio="xMidYMid meet" version="1.0" viewBox="0.0 0.0 715.9 698.4" zoomAndPan="magnify" style="fill: rgb(0, 0, 0);" role="img" aria-label="Seamless Pattern">
  <g data-name="Layer 2">
    <g data-name="Layer 1" id="__id79_sfw1brvjy6" style="fill: rgb(93, 203, 183);">
      <path d="M643.56 35.42L572.16 5.42 500.76 35.42 429.36 5.42 357.96 35.42 286.56 5.42 215.16 35.42 143.76 5.42 72.37 35.42 0 5.02 1.94 0.41 72.37 30 143.76 0 215.16 30 286.56 0 357.96 30 429.36 0 500.76 30 572.16 0 643.56 30 714 0.41 715.94 5.02 643.56 35.42z" style="fill: inherit;"></path>
      <path d="M643.56 74.42L572.16 44.42 500.76 74.42 429.36 44.42 357.96 74.42 286.56 44.42 215.16 74.42 143.76 44.42 72.37 74.42 0 44.02 1.94 39.41 72.37 69 143.76 39 215.16 69 286.56 39 357.96 69 429.36 39 500.76 69 572.16 39 643.56 69 714 39.41 715.94 44.02 643.56 74.42z" style="fill: inherit;"></path>
      <path d="M643.56 113.42L572.16 83.42 500.76 113.42 429.36 83.42 357.96 113.42 286.56 83.42 215.16 113.42 143.76 83.42 72.37 113.42 0 83.02 1.94 78.41 72.37 108 143.76 78 215.16 108 286.56 78 357.96 108 429.36 78 500.76 108 572.16 78 643.56 108 714 78.41 715.94 83.02 643.56 113.42z" style="fill: inherit;"></path>
      <path d="M643.56 152.42L572.16 122.42 500.76 152.42 429.36 122.42 357.96 152.42 286.56 122.42 215.16 152.42 143.76 122.42 72.37 152.42 0 122.02 1.94 117.41 72.37 147 143.76 117 215.16 147 286.56 117 357.96 147 429.36 117 500.76 147 572.16 117 643.56 147 714 117.41 715.94 122.02 643.56 152.42z" style="fill: inherit;"></path>
      <path d="M643.56 191.42L572.16 161.42 500.76 191.42 429.36 161.42 357.96 191.42 286.56 161.42 215.16 191.42 143.76 161.42 72.37 191.42 0 161.02 1.94 156.41 72.37 186 143.76 156 215.16 186 286.56 156 357.96 186 429.36 156 500.76 186 572.16 156 643.56 186 714 156.41 715.94 161.02 643.56 191.42z" style="fill: inherit;"></path>
      <path d="M643.56 230.42L572.16 200.42 500.76 230.42 429.36 200.42 357.96 230.42 286.56 200.42 215.16 230.42 143.76 200.42 72.37 230.42 0 200.02 1.94 195.41 72.37 225 143.76 195 215.16 225 286.56 195 357.96 225 429.36 195 500.76 225 572.16 195 643.56 225 714 195.41 715.94 200.02 643.56 230.42z" style="fill: inherit;"></path>
      <path d="M643.56 269.42L572.16 239.42 500.76 269.42 429.36 239.42 357.96 269.42 286.56 239.42 215.16 269.42 143.76 239.42 72.37 269.42 0 239.02 1.94 234.41 72.37 264 143.76 234 215.16 264 286.56 234 357.96 264 429.36 234 500.76 264 572.16 234 643.56 264 714 234.41 715.94 239.02 643.56 269.42z" style="fill: inherit;"></path>
      <path d="M643.56 308.42L572.16 278.42 500.76 308.42 429.36 278.42 357.96 308.42 286.56 278.42 215.16 308.42 143.76 278.42 72.37 308.42 0 278.02 1.94 273.41 72.37 303 143.76 273 215.16 303 286.56 273 357.96 303 429.36 273 500.76 303 572.16 273 643.56 303 714 273.41 715.94 278.02 643.56 308.42z" style="fill: inherit;"></path>
      <path d="M643.56 347.42L572.16 317.42 500.76 347.42 429.36 317.42 357.96 347.42 286.56 317.42 215.16 347.42 143.76 317.42 72.37 347.42 0 317.02 1.94 312.41 72.37 342 143.76 312 215.16 342 286.56 312 357.96 342 429.36 312 500.76 342 572.16 312 643.56 342 714 312.41 715.94 317.02 643.56 347.42z" style="fill: inherit;"></path>
      <path d="M643.56 386.42L572.16 356.42 500.76 386.42 429.36 356.42 357.96 386.42 286.56 356.42 215.16 386.42 143.76 356.42 72.37 386.42 0 356.02 1.94 351.41 72.37 381 143.76 351 215.16 381 286.56 351 357.96 381 429.36 351 500.76 381 572.16 351 643.56 381 714 351.41 715.94 356.02 643.56 386.42z" style="fill: inherit;"></path>
      <path d="M643.56 425.42L572.16 395.42 500.76 425.42 429.36 395.42 357.96 425.42 286.56 395.42 215.16 425.42 143.76 395.42 72.37 425.42 0 395.02 1.94 390.41 72.37 420 143.76 390 215.16 420 286.56 390 357.96 420 429.36 390 500.76 420 572.16 390 643.56 420 714 390.41 715.94 395.02 643.56 425.42z" style="fill: inherit;"></path>
      <path d="M643.56 464.42L572.16 434.42 500.76 464.42 429.36 434.42 357.96 464.42 286.56 434.42 215.16 464.42 143.76 434.42 72.37 464.42 0 434.02 1.94 429.41 72.37 459 143.76 429 215.16 459 286.56 429 357.96 459 429.36 429 500.76 459 572.16 429 643.56 459 714 429.41 715.94 434.02 643.56 464.42z" style="fill: inherit;"></path>
      <path d="M643.56 503.42L572.16 473.42 500.76 503.42 429.36 473.42 357.96 503.42 286.56 473.42 215.16 503.42 143.76 473.42 72.37 503.42 0 473.02 1.94 468.41 72.37 498 143.76 468 215.16 498 286.56 468 357.96 498 429.36 468 500.76 498 572.16 468 643.56 498 714 468.41 715.94 473.02 643.56 503.42z" style="fill: inherit;"></path>
      <path d="M643.56 542.42L572.16 512.42 500.76 542.42 429.36 512.42 357.96 542.42 286.56 512.42 215.16 542.42 143.76 512.42 72.37 542.42 0 512.02 1.94 507.41 72.37 537 143.76 507 215.16 537 286.56 507 357.96 537 429.36 507 500.76 537 572.16 507 643.56 537 714 507.41 715.94 512.02 643.56 542.42z" style="fill: inherit;"></path>
      <path d="M643.56 581.42L572.16 551.42 500.76 581.42 429.36 551.42 357.96 581.42 286.56 551.42 215.16 581.42 143.76 551.42 72.37 581.42 0 551.02 1.94 546.41 72.37 576 143.76 546 215.16 576 286.56 546 357.96 576 429.36 546 500.76 576 572.16 546 643.56 576 714 546.41 715.94 551.02 643.56 581.42z" style="fill: inherit;"></path>
      <path d="M643.56 620.42L572.16 590.42 500.76 620.42 429.36 590.42 357.96 620.42 286.56 590.42 215.16 620.42 143.76 590.42 72.37 620.42 0 590.02 1.94 585.41 72.37 615 143.76 585 215.16 615 286.56 585 357.96 615 429.36 585 500.76 615 572.16 585 643.56 615 714 585.41 715.94 590.02 643.56 620.42z" style="fill: inherit;"></path>
      <path d="M643.56 659.42L572.16 629.42 500.76 659.42 429.36 629.42 357.96 659.42 286.56 629.42 215.16 659.42 143.76 629.42 72.37 659.42 0 629.02 1.94 624.41 72.37 654 143.76 624 215.16 654 286.56 624 357.96 654 429.36 624 500.76 654 572.16 624 643.56 654 714 624.41 715.94 629.02 643.56 659.42z" style="fill: inherit;"></path>
      <path d="M643.56 698.42L572.16 668.42 500.76 698.42 429.36 668.42 357.96 698.42 286.56 668.42 215.16 698.42 143.76 668.42 72.37 698.42 0 668.02 1.94 663.41 72.37 693 143.76 663 215.16 693 286.56 663 357.96 693 429.36 663 500.76 693 572.16 663 643.56 693 714 663.41 715.94 668.02 643.56 698.42z" style="fill: inherit;"></path>
    </g>
  </g>
</svg>