<svg xmlns="http://www.w3.org/2000/svg" xmlns:xlink="http://www.w3.org/1999/xlink" preserveAspectRatio="xMidYMid meet" version="1.0" viewBox="0.0 0.0 122.2 126.0" zoomAndPan="magnify" style="fill: rgb(85, 196, 176);" role="img" aria-label="luggage gradient icon">
  <g id="__id82_sct8sbxbdb">
    <path d="M113.16,68.63h-12.6v-3.04c0-3.518-2.862-6.38-6.38-6.38H79.45c-3.518,0-6.38,2.862-6.38,6.38v3.04H69.5v-34.4 c0-7.615-6.195-13.81-13.81-13.81h-3.91V8.737c1.921-0.301,3.4-1.953,3.4-3.957V4.02c0-2.217-1.803-4.02-4.02-4.02H18.34 c-2.222,0-4.03,1.803-4.03,4.02v0.76c0,2.002,1.478,3.652,3.4,3.956V20.42h-3.9C6.195,20.42,0,26.615,0,34.23v69.74 c0,5.611,3.411,10.645,8.55,12.758v4.892c0,2.415,1.965,4.38,4.38,4.38c1.17,0,2.271-0.456,3.097-1.283 c0.828-0.827,1.283-1.927,1.283-3.097v-3.84h34.155c0.49,4.542,4.34,8.09,9.005,8.09h52.69c4.996,0,9.06-4.069,9.06-9.07V77.69 C122.22,72.694,118.155,68.63,113.16,68.63z M106.64,70.63v53.24H66.99V70.63H106.64z M79.61,67.38c0-1.196,0.974-2.17,2.17-2.17 h10.07c1.196,0,2.17,0.974,2.17,2.17v1.25H79.61V67.38z M47.14,20.42V8.8h2.64v11.62H47.14z M44.949,20.42l-1.763-2.344 c-0.856-1.129-2.112-1.776-3.447-1.776h-9.98c-1.347,0-2.605,0.649-3.449,1.779l-1.76,2.341H24.36V8.8h20.78v11.62H44.949z M42.447,20.42H27.053l0.858-1.141c0.464-0.622,1.138-0.979,1.849-0.979h9.98c0.703,0,1.379,0.359,1.851,0.981L42.447,20.42z M19.71,8.8h2.65v11.62h-2.65V8.8z M2,103.97V34.23c0-6.512,5.298-11.81,11.81-11.81h41.88c6.512,0,11.81,5.298,11.81,11.81v34.4 h-6.14V32.84c0-2.139-1.741-3.88-3.88-3.88c-1.033,0-2.01,0.4-2.757,1.133c-0.73,0.73-1.133,1.706-1.133,2.747v38.973 c-1.404,1.641-2.18,3.708-2.18,5.877v38.09h-37.6c-1.343,0-2.664-0.227-3.929-0.673C5.167,113.45,2,108.975,2,103.97z M53.415,116.883c0.004-0.035,0.02-0.066,0.02-0.103c0-0.042-0.02-0.077-0.025-0.118V77.69c0-1.403,0.418-2.751,1.183-3.9 c0.551-0.001,0.997-0.448,0.997-0.999v-0.186c1.267-1.215,2.894-1.908,4.63-1.965c0.048,0.006,0.09,0.026,0.14,0.026 c0.058,0,0.108-0.025,0.163-0.035h4.467v53.24h-4.52C56.611,123.87,53.47,120.753,53.415,116.883z M120.22,116.8 c0,3.898-3.167,7.07-7.06,7.07h-4.52V70.63h4.52c3.893,0,7.06,3.167,7.06,7.06V116.8z" style="fill: inherit;"></path>
    <path d="M34.43,108.01h0.64c1.963,0,3.56-1.597,3.56-3.56V32.52c0-1.963-1.597-3.56-3.56-3.56h-0.64c-1.963,0-3.56,1.597-3.56,3.56 v71.93C30.87,106.413,32.467,108.01,34.43,108.01z" style="fill: inherit;"></path>
    <path d="M22.76,108.01h0.64c1.963,0,3.56-1.597,3.56-3.56V32.52c0-1.963-1.597-3.56-3.56-3.56h-0.64c-1.963,0-3.56,1.597-3.56,3.56 v71.93C19.2,106.413,20.797,108.01,22.76,108.01z" style="fill: inherit;"></path>
    <path d="M11.73,108.01c1.963,0,3.56-1.597,3.56-3.56V32.52c0-1.963-1.597-3.56-3.56-3.56h-0.64c-1.963,0-3.56,1.597-3.56,3.56 v71.93c0,1.963,1.597,3.56,3.56,3.56H11.73z" style="fill: inherit;"></path>
    <path d="M45.49,108.01h0.64c1.963,0,3.56-1.597,3.56-3.56V32.52c0-1.963-1.597-3.56-3.56-3.56h-0.64c-1.963,0-3.56,1.597-3.56,3.56 v71.93C41.93,106.413,43.527,108.01,45.49,108.01z" style="fill: inherit;"></path>
  </g>
</svg>